<svg xmlns="http://www.w3.org/2000/svg" viewBox="0 0 640 640">
  <path fill="#a78bfa" d="M241.6 64h157l44.7 50.8s39.3-10.9 57.8 7.6 33.8 34.9 33.8 34.9l-12 29.5 15.3 43.7s-44.9 170.2-50.1 191c-10.4 40.9-17.4 56.8-46.9 77.5a4072 4072 0 0 1-97.5 66.1c-7.5 5.1-15.8 10.8-23.5 10.8s-16.1-5.7-23.5-10.8q-3-2.2-5.9-3.9c-8.7-5.5-62.1-41.5-91.6-62.2s-36.5-36.6-46.9-77.5c-5.3-20.8-50.1-191-50.1-191l15.3-43.7-12.2-29.5s15.3-16.4 33.8-34.9 57.8-7.6 57.8-7.6zm78.5 407.6c3.7 0 8.9-4.7 13-8.4l1.7-1.5a2855 2855 0 0 1 51-39.8c3.2-2.3 5.4-6.5 1.9-8.7-2.8-1.7-10-5.5-20.3-10.8l-9.7-5c-15.4-8-34.5-14.7-37.5-14.7s-22.1 6.8-37.5 14.7l-9.7 5a417 417 0 0 0-20.3 10.8c-3.6 2.2-1.4 6.4 1.9 8.7a2536 2536 0 0 1 52.7 41.3c4.1 3.7 9.3 8.4 13 8.4zm0-165.7c4.7 0 17.6-3 26.4-5l2-.5c7.8-1.8 7.3-6.3 6.4-13l-.3-2.4c-.6-6.1-5.8-33.1-9.1-50.3l-2.4-12.9c-1.5-8.1-.6-9.4.7-11.3l.7-1.1c1.4-2.3 16-6.2 27.9-9.5l6.9-1.9c10.6-3 32.4-.6 44.2.6l4.7.5c9.6.9 10.4 2.3 7.2 3.8-2.3 1.1-16.2 6.3-28.7 10.9l-17.3 6.5c-12.5 4.6-27.2 10-28.9 19.4-1.5 8.3 5.2 19.9 11.3 30.3l4.6 8.1c6.3 11.9 6.5 13.3 6.1 18.1-.4 3.9-14.5 12.7-22.4 17.6l-4.2 2.7-3.8 2.4c-8.6 5.2-26.3 16-26.3 22.5 0 7.8 24.6 28.1 32.4 33.2s28.9 16.1 37.9 17.8 23-8.5 31.2-23.8c7.7-14.4 1.7-28.5-3.2-40l-.9-2.2c-4.5-10.6 1.9-17 6.2-21.3l1.4-1.4 43-45.7 3.7-3.8c5.8-5.7 10.8-10.5 10.8-22.8 0-14.9-57.5-84.5-57.5-84.5s-48.5 9.3-55.1 9.3c-5.2 0-15.3-3.5-25.8-7.1l-8-2.7c-13-4.3-21.8-4.4-21.8-4.4s-8.7 0-21.8 4.4l-8 2.7c-10.5 3.6-20.6 7.1-25.8 7.1-6.5 0-55.1-9.3-55.1-9.3s-57.5 69.6-57.5 84.5c0 12.3 4.9 17.1 10.8 22.8l3.7 3.8 43.1 45.8 1.4 1.4c4.3 4.3 10.6 10.7 6.2 21.3l-.9 2.2c-4.9 11.5-11 25.6-3.2 40 8.2 15.3 22.2 25.5 31.2 23.8s30.1-12.7 37.9-17.8 32.4-25.4 32.4-33.2c0-6.5-17.7-17.3-26.3-22.5l-3.8-2.4-4.2-2.7c-7.9-4.9-22-13.7-22.4-17.6-.4-4.8-.3-6.2 6.1-18.1q2-3.8 4.6-8.1c6-10.4 12.8-22 11.3-30.3-1.7-9.4-16.4-14.8-28.9-19.4l-4.5-1.7-12.8-4.8h-.1c-12.5-4.7-26.4-9.9-28.7-10.9-3.2-1.5-2.3-2.8 7.2-3.8l4.7-.5c11.8-1.3 33.6-3.6 44.2-.6l6.9 1.9c11.9 3.2 26.5 7.2 27.9 9.5l.7 1.1c1.3 1.9 2.2 3.2.7 11.3l-2.4 12.9c-3.3 17.2-8.5 44.2-9.1 50.3l-.3 2.4c-.8 6.7-1.4 11.2 6.4 13l2 .5c8.8 2 21.8 5 26.4 5z"/>
</svg>
