<svg xmlns="http://www.w3.org/2000/svg" viewBox="0 0 640 640">
  <path fill="currentColor" d="M184.1 101.4c41-25.2 87.6-38.2 134.9-37.4 168 0 257 123.8 257 219.5a125 125 0 0 1-122.6 124.2c-75.2 0-91.5-23.1-91.5-32 0-3.8 1.2-6.2 4.8-9.4l1-1.2.4-1.6a61 61 0 0 0 15.9-41.6c0-78.7-82.2-142.7-184-142.7-37.5-.3-74.5 8.9-107.5 26.9 27-57.5 82.7-97.6 91.3-103.8.8-.6.3-.8.3-.8zm15.6 318.1a197 197 0 0 0 16.4 87.2 207 207 0 0 0 56.5 69.3A259 259 0 0 1 64 321.9c0-51.2 62.4-94.4 136-94.4 36.6-.6 72.4 10.9 101.8 32.7l-3.6 1.2c-51.5 17.6-98.5 90.7-98.5 158.1M533.8 464l-.7.1a226 226 0 0 1-42.2 49.5 192 192 0 0 1-108.8 49.9c-18.6.3-36.8-3.2-53.8-11.4a134 134 0 0 1-61.6-53 135 135 0 0 1-19-79.6c-.6-20.1 5.4-40.3 15-58.2a179 179 0 0 0 169 109.4c31 .3 62.1-6.7 90.2-20.5l1.9-.9c3.9-2.3 7.7-3.9 11.6 0 4.5 4.9 1.8 9.2-1.2 14z"/>
</svg>