<svg xmlns="http://www.w3.org/2000/svg" viewBox="0 0 640 640">
  <path fill="currentColor" d="M545.6 236.9c-10.6-25.5-32.1-53-48.9-61.7a253 253 0 0 1 24.7 74l.1.4c-27.6-68.8-74.4-96.5-112.6-156.8-15-23.7-10.9-25.2-13.1-24.7l-.1.1c-46.7 26-75.3 78.4-82.6 122.7-16.6.9-32.9 5-47.9 12.1a6 6 0 0 0-3.1 3 7 7 0 0 0-.6 4.3 7 7 0 0 0 1.1 2.3 6 6 0 0 0 6.8 2.2l.5-.2a118 118 0 0 1 49.5-11.3c62.8-.6 97.2 44 107.6 62.3a84 84 0 0 0-58.8-14.3c87.7 43.9 64.2 194.5-57.4 189.2-59.5-2.6-97.1-51-100.5-90.8 0 0 11.2-41.9 80.6-41.9 7.5 0 28.9-20.9 29.3-27-.1-2-42.5-18.9-59.1-35.2a385 385 0 0 0-16.8-16.1q-3-2.6-6.3-4.8c-5.6-19.5-5.8-40-.7-59.6a178 178 0 0 0-58.7 45.4h-.1c-9.7-12.2-9-52.6-8.4-61.1a51 51 0 0 0-8.2 4.3 210 210 0 0 0-79.3 121.6 315 315 0 0 0-6.8 52.3 244 244 0 0 0 243.9 243.9c120.6 0 223-87.2 240.4-202.6 11.6-76.7-14.7-131.1-14.7-132z"/>
</svg>